%FSLAX25Y25*%
%MOIN*%
G70*
G01*
G75*
%ADD10C,0.00500*%
%ADD11C,0.00667*%
D10*
X424622Y453000D02*
X427378D01*
X426000Y451622D02*
Y454378D01*
X424622Y463000D02*
X427378D01*
X426000Y461622D02*
Y464378D01*
X424622Y473000D02*
X427378D01*
X426000Y471622D02*
Y474378D01*
X424622Y483000D02*
X427378D01*
X426000Y481622D02*
Y484378D01*
X413228Y362500D02*
X416772D01*
X415000Y360728D02*
Y364272D01*
X403228Y362500D02*
X406772D01*
X405000Y360728D02*
Y364272D01*
X393228Y362500D02*
X396772D01*
X395000Y360728D02*
Y364272D01*
X383228Y362500D02*
X386772D01*
X385000Y360728D02*
Y364272D01*
X157032Y456500D02*
X160968D01*
X159000Y454531D02*
Y458468D01*
X145031Y476500D02*
X148969D01*
X147000Y474532D02*
Y478469D01*
X169032Y476500D02*
X172968D01*
X171000Y474532D02*
Y478469D01*
X138201Y417000D02*
X142217D01*
X140209Y414992D02*
Y419008D01*
X138201Y385000D02*
X142217D01*
X140209Y382992D02*
Y387008D01*
X138201Y375016D02*
X142217D01*
X140209Y373008D02*
Y377024D01*
X138201Y426984D02*
X142217D01*
X140209Y424976D02*
Y428992D01*
X182750Y388520D02*
X186250D01*
X184500Y386770D02*
Y390270D01*
X192750Y393520D02*
X196250D01*
X194500Y391770D02*
Y395270D01*
X182750Y408520D02*
X186250D01*
X184500Y406770D02*
Y410270D01*
X192750Y413520D02*
X196250D01*
X194500Y411770D02*
Y415270D01*
X182750Y418520D02*
X186250D01*
X184500Y416770D02*
Y420270D01*
X192750Y403520D02*
X196250D01*
X194500Y401770D02*
Y405270D01*
X182750Y398520D02*
X186250D01*
X184500Y396770D02*
Y400270D01*
X168252Y431512D02*
X174748D01*
X171500Y428264D02*
Y434760D01*
X168252Y370488D02*
X174748D01*
X171500Y367240D02*
Y373736D01*
X192750Y383520D02*
X196250D01*
X194500Y381770D02*
Y385270D01*
X402228Y386500D02*
X405772D01*
X404000Y384728D02*
Y388272D01*
X412228Y386500D02*
X415772D01*
X414000Y384728D02*
Y388272D01*
X431728Y431000D02*
X435272D01*
X433500Y429228D02*
Y432772D01*
X431728Y421000D02*
X435272D01*
X433500Y419228D02*
Y422772D01*
X431728Y411000D02*
X435272D01*
X433500Y409228D02*
Y412772D01*
X431728Y401000D02*
X435272D01*
X433500Y399228D02*
Y402772D01*
X250600Y360000D02*
X253400D01*
X252000Y358600D02*
Y361400D01*
X211600Y360000D02*
X214400D01*
X213000Y358600D02*
Y361400D01*
X314100Y395500D02*
X316900D01*
X315500Y394100D02*
Y396900D01*
X404600Y429500D02*
X407400D01*
X406000Y428100D02*
Y430900D01*
X411600Y492000D02*
X414400D01*
X413000Y490600D02*
Y493400D01*
X326100Y493000D02*
X328900D01*
X327500Y491600D02*
Y494400D01*
X282600Y492000D02*
X285400D01*
X284000Y490600D02*
Y493400D01*
X215600Y491000D02*
X218400D01*
X217000Y489600D02*
Y492400D01*
X252600Y492500D02*
X255400D01*
X254000Y491100D02*
Y493900D01*
X126100Y476000D02*
X128900D01*
X127500Y474600D02*
Y477400D01*
X148600Y446500D02*
X151400D01*
X150000Y445100D02*
Y447900D01*
X202100Y450000D02*
X204900D01*
X203500Y448600D02*
Y451400D01*
X244100Y452500D02*
X246900D01*
X245500Y451100D02*
Y453900D01*
X280100Y457000D02*
X282900D01*
X281500Y455600D02*
Y458400D01*
X339600Y425500D02*
X342400D01*
X341000Y424100D02*
Y426900D01*
X328600Y460500D02*
X331400D01*
X330000Y459100D02*
Y461900D01*
X353600Y460000D02*
X356400D01*
X355000Y458600D02*
Y461400D01*
X376100Y461000D02*
X378900D01*
X377500Y459600D02*
Y462400D01*
X386600Y445000D02*
X389400D01*
X388000Y443600D02*
Y446400D01*
X384600Y419000D02*
X387400D01*
X386000Y417600D02*
Y420400D01*
X371100Y403500D02*
X373900D01*
X372500Y402100D02*
Y404900D01*
X358100Y387500D02*
X360900D01*
X359500Y386100D02*
Y388900D01*
X332000Y370500D02*
X334000D01*
X333000Y369500D02*
Y371500D01*
X277000Y365500D02*
X279000D01*
X278000Y364500D02*
Y366500D01*
X349000Y383000D02*
X351000D01*
X350000Y382000D02*
Y384000D01*
X306846Y368000D02*
X308846D01*
X307846Y367000D02*
Y369000D01*
X282161Y362000D02*
X284161D01*
X283161Y361000D02*
Y363000D01*
X345500Y379000D02*
X347500D01*
X346500Y378000D02*
Y380000D01*
X232000Y378000D02*
X234000D01*
X233000Y377000D02*
Y379000D01*
X234500Y415500D02*
X236500D01*
X235500Y414500D02*
Y416500D01*
X264500Y394500D02*
X266500D01*
X265500Y393500D02*
Y395500D01*
X228500Y370500D02*
X230500D01*
X229500Y369500D02*
Y371500D01*
X327000Y382500D02*
X329000D01*
X328000Y381500D02*
Y383500D01*
X352516Y394484D02*
X354516D01*
X353516Y393484D02*
Y395484D01*
X329000Y404000D02*
X331000D01*
X330000Y403000D02*
Y405000D01*
X350500Y378000D02*
X352500D01*
X351500Y377000D02*
Y379000D01*
X355500D02*
X357500D01*
X356500Y378000D02*
Y380000D01*
X361500Y378000D02*
X363500D01*
X362500Y377000D02*
Y379000D01*
X392000Y383000D02*
X394000D01*
X393000Y382000D02*
Y384000D01*
X386500Y382000D02*
X388500D01*
X387500Y381000D02*
Y383000D01*
X381000Y380000D02*
X383000D01*
X382000Y379000D02*
Y381000D01*
X362000Y475000D02*
X364000D01*
X363000Y474000D02*
Y476000D01*
X361500Y480500D02*
X363500D01*
X362500Y479500D02*
Y481500D01*
X362000Y469500D02*
X364000D01*
X363000Y468500D02*
Y470500D01*
X353000Y359000D02*
X355000D01*
X354000Y358000D02*
Y360000D01*
X284500Y472154D02*
X286500D01*
X285500Y471153D02*
Y473153D01*
X290000Y408500D02*
X292000D01*
X291000Y407500D02*
Y409500D01*
X308000Y414000D02*
X310000D01*
X309000Y413000D02*
Y415000D01*
X276500Y409000D02*
X278500D01*
X277500Y408000D02*
Y410000D01*
X268000Y409000D02*
X270000D01*
X269000Y408000D02*
Y410000D01*
X342500Y414500D02*
X344500D01*
X343500Y413500D02*
Y415500D01*
X370000Y415000D02*
X372000D01*
X371000Y414000D02*
Y416000D01*
X382500Y403000D02*
X384500D01*
X383500Y402000D02*
Y404000D01*
X373500Y371000D02*
X375500D01*
X374500Y370000D02*
Y372000D01*
X359500Y493000D02*
X361500D01*
X360500Y492000D02*
Y494000D01*
X414000Y451500D02*
X416000D01*
X415000Y450500D02*
Y452500D01*
X288913Y472154D02*
X290913D01*
X289913Y471153D02*
Y473153D01*
X229000Y406500D02*
X231000D01*
X230000Y405500D02*
Y407500D01*
X229000Y401900D02*
X231000D01*
X230000Y400900D02*
Y402900D01*
X231500Y391600D02*
X233500D01*
X232500Y390600D02*
Y392600D01*
X231500Y387000D02*
X233500D01*
X232500Y386000D02*
Y388000D01*
M02*
