M48
;Layer_Color=9474304
;FILE_FORMAT=2:5
INCH,LZ
;TYPE=PLATED
T1F00S00C0.02000
T2F00S00C0.02756
T3F00S00C0.02800
T4F00S00C0.03500
T5F00S00C0.03543
T7F00S00C0.04016
T8F00S00C0.06496
%
T01
X02295Y03705
X0233Y0378
X02325Y0387
Y03916
X023Y04019
Y04065
X02355Y04155
X0269Y0409
X02775
X0291Y04085
X0309Y0414
X0307846Y0368
X0283161Y0362
X0278Y03655
X02655Y03945
X033Y0404
X0328Y03825
X0333Y03705
X03465Y0379
X03515Y0378
X03565Y0379
X03625Y0378
X035Y0383
X0353516Y0394484
X03435Y04145
X0371Y0415
X03835Y0403
X0382Y038
X03875Y0382
X0393Y0383
X03745Y0371
X0354Y0359
X0415Y04515
X0363Y04695
Y0475
X03625Y04805
X03605Y0493
X0289913Y0472154
X02855
T02
X0426Y0453
Y0463
Y0473
Y0483
T03
X015Y04465
X02035Y045
X02455Y04525
X02815Y0457
X0252Y036
X0213
X03155Y03955
X03595Y03875
X03725Y04035
X0386Y0419
X0388Y0445
X03775Y0461
X0355Y046
X033Y04605
X0341Y04255
X0406Y04295
X0413Y0492
X03275Y0493
X0284Y0492
X0254Y04925
X0217Y0491
X01275Y0476
T04
X01845Y038852
Y039852
Y040852
Y041852
X01945Y041352
Y040352
Y039352
Y038352
T05
X0385Y03625
X0395
X0405
X0415
X0414Y03865
X0404
X04335Y0401
Y0411
Y0421
Y0431
T07
X0140209Y0375016
X0140209Y0385
Y0417
X0140209Y0426984
T08
X01715Y0370488
Y0431512
M30
