%FSLAX25Y25*%
%MOIN*%
G70*
G01*
G75*
G04 Layer_Color=255*
%ADD10C,0.02000*%
%ADD11R,0.04331X0.03937*%
%ADD12R,0.05118X0.05906*%
%ADD13R,0.09843X0.07087*%
%ADD14R,0.03937X0.04331*%
%ADD15R,0.07087X0.09843*%
%ADD16R,0.14173X0.09843*%
%ADD17R,0.06000X0.06000*%
%ADD18O,0.08661X0.02362*%
%ADD19R,0.06102X0.13583*%
%ADD20R,0.06102X0.04331*%
%ADD21R,0.06102X0.04331*%
%ADD22O,0.08268X0.01181*%
%ADD23O,0.01181X0.08268*%
%ADD24R,0.01496X0.08661*%
%ADD25O,0.17323X0.05906*%
%ADD26C,0.01500*%
%ADD27C,0.01000*%
%ADD28C,0.00800*%
%ADD29C,0.05000*%
%ADD30C,0.05118*%
%ADD31R,0.05906X0.05906*%
%ADD32C,0.05906*%
%ADD33O,0.17716X0.07874*%
%ADD34O,0.07874X0.17716*%
%ADD35C,0.05906*%
%ADD36C,0.06000*%
%ADD37C,0.06693*%
%ADD38R,0.05906X0.05906*%
%ADD39C,0.05000*%
%ADD40C,0.04000*%
D17*
X184500Y418520D02*
D03*
D30*
X426000Y453000D02*
D03*
Y463000D02*
D03*
Y473000D02*
D03*
Y483000D02*
D03*
D31*
X415000Y362500D02*
D03*
X404000Y386500D02*
D03*
D32*
X405000Y362500D02*
D03*
X395000D02*
D03*
X385000D02*
D03*
X140209Y375016D02*
D03*
Y426984D02*
D03*
X414000Y386500D02*
D03*
X433500Y431000D02*
D03*
Y421000D02*
D03*
Y411000D02*
D03*
D33*
X159000Y456500D02*
D03*
D34*
X147000Y476500D02*
D03*
X171000D02*
D03*
D35*
X140209Y417000D02*
D03*
Y385000D02*
D03*
D36*
X184500Y388520D02*
D03*
X194500Y393520D02*
D03*
X184500Y408520D02*
D03*
X194500Y413520D02*
D03*
Y403520D02*
D03*
X184500Y398520D02*
D03*
X194500Y383520D02*
D03*
D37*
X171500Y431512D02*
D03*
Y370488D02*
D03*
D38*
X433500Y401000D02*
D03*
M02*
