%FSLAX25Y25*%
%MOIN*%
G70*
G01*
G75*
G04 Layer_Color=16711935*
%ADD10C,0.02000*%
%ADD11R,0.04331X0.03937*%
%ADD12R,0.05118X0.05906*%
%ADD13R,0.09843X0.07087*%
%ADD14R,0.03937X0.04331*%
%ADD15R,0.07087X0.09843*%
%ADD16R,0.14173X0.09843*%
%ADD17R,0.06000X0.06000*%
%ADD18O,0.08661X0.02362*%
%ADD19R,0.06102X0.13583*%
%ADD20R,0.06102X0.04331*%
%ADD21R,0.06102X0.04331*%
%ADD22O,0.08268X0.01181*%
%ADD23O,0.01181X0.08268*%
%ADD24R,0.01496X0.08661*%
%ADD25O,0.17323X0.05906*%
%ADD26C,0.01500*%
%ADD27C,0.01000*%
%ADD28C,0.00800*%
%ADD29C,0.05000*%
%ADD30C,0.05118*%
%ADD31R,0.05906X0.05906*%
%ADD32C,0.05906*%
%ADD33O,0.17716X0.07874*%
%ADD34O,0.07874X0.17716*%
%ADD35C,0.05906*%
%ADD36C,0.06000*%
%ADD37C,0.06693*%
%ADD38R,0.05906X0.05906*%
%ADD39C,0.05000*%
%ADD40C,0.04000*%
%ADD41C,0.00787*%
%ADD42C,0.00984*%
%ADD43C,0.02362*%
%ADD44C,0.00600*%
%ADD45C,0.01200*%
%ADD46R,0.05131X0.04737*%
%ADD47R,0.05918X0.06706*%
%ADD48R,0.10642X0.07887*%
%ADD49R,0.04737X0.05131*%
%ADD50R,0.07887X0.10642*%
%ADD51R,0.14973X0.10642*%
%ADD52R,0.06800X0.06800*%
%ADD53O,0.09461X0.03162*%
%ADD54R,0.06902X0.14383*%
%ADD55R,0.06902X0.05131*%
%ADD56R,0.06902X0.05131*%
%ADD57O,0.09068X0.01981*%
%ADD58O,0.01981X0.09068*%
%ADD59R,0.02296X0.09461*%
%ADD60O,0.18123X0.06706*%
%ADD61C,0.05918*%
%ADD62R,0.06706X0.06706*%
%ADD63C,0.06706*%
%ADD64O,0.18517X0.08674*%
%ADD65O,0.08674X0.18517*%
%ADD66C,0.06706*%
%ADD67C,0.06800*%
%ADD68C,0.07493*%
%ADD69R,0.06706X0.06706*%
D52*
X184500Y418520D02*
D03*
D61*
X426000Y453000D02*
D03*
Y463000D02*
D03*
Y473000D02*
D03*
Y483000D02*
D03*
D62*
X415000Y362500D02*
D03*
X404000Y386500D02*
D03*
D63*
X405000Y362500D02*
D03*
X395000D02*
D03*
X385000D02*
D03*
X140209Y375016D02*
D03*
Y426984D02*
D03*
X414000Y386500D02*
D03*
X433500Y431000D02*
D03*
Y421000D02*
D03*
Y411000D02*
D03*
D64*
X159000Y456500D02*
D03*
D65*
X147000Y476500D02*
D03*
X171000D02*
D03*
D66*
X140209Y417000D02*
D03*
Y385000D02*
D03*
D67*
X184500Y388520D02*
D03*
X194500Y393520D02*
D03*
X184500Y408520D02*
D03*
X194500Y413520D02*
D03*
Y403520D02*
D03*
X184500Y398520D02*
D03*
X194500Y383520D02*
D03*
D68*
X171500Y431512D02*
D03*
Y370488D02*
D03*
D69*
X433500Y401000D02*
D03*
M02*
