%FSLAX25Y25*%
%MOIN*%
G70*
G01*
G75*
%ADD10C,0.02000*%
%ADD11R,0.04331X0.03937*%
%ADD12R,0.05118X0.05906*%
%ADD13R,0.09843X0.07087*%
%ADD14R,0.03937X0.04331*%
%ADD15R,0.07087X0.09843*%
%ADD16R,0.14173X0.09843*%
%ADD17R,0.06000X0.06000*%
%ADD18O,0.08661X0.02362*%
%ADD19R,0.06102X0.13583*%
%ADD20R,0.06102X0.04331*%
%ADD21R,0.06102X0.04331*%
%ADD22O,0.08268X0.01181*%
%ADD23O,0.01181X0.08268*%
%ADD24R,0.01496X0.08661*%
%ADD25O,0.17323X0.05906*%
%ADD26C,0.01500*%
%ADD27C,0.01000*%
%ADD28C,0.00800*%
%ADD29C,0.05000*%
%ADD30C,0.05118*%
%ADD31R,0.05906X0.05906*%
%ADD32C,0.05906*%
%ADD33O,0.17716X0.07874*%
%ADD34O,0.07874X0.17716*%
%ADD35C,0.05906*%
%ADD36C,0.06000*%
%ADD37C,0.06693*%
%ADD38R,0.05906X0.05906*%
%ADD39C,0.05000*%
%ADD40C,0.04000*%
D11*
X418347Y412500D02*
D03*
X411654D02*
D03*
X418347Y420500D02*
D03*
X411654D02*
D03*
X313154Y477000D02*
D03*
X319847D02*
D03*
X313154Y485000D02*
D03*
X319847D02*
D03*
X342154Y493000D02*
D03*
X348847D02*
D03*
X407346Y452000D02*
D03*
X400654D02*
D03*
X254153Y401000D02*
D03*
X260846D02*
D03*
X270346Y450500D02*
D03*
X263653D02*
D03*
X298847D02*
D03*
X292154D02*
D03*
X214653Y415500D02*
D03*
X221346D02*
D03*
X360653Y359000D02*
D03*
X367347D02*
D03*
X390347Y397000D02*
D03*
X383653D02*
D03*
X214653Y378000D02*
D03*
X221346D02*
D03*
X366653Y452000D02*
D03*
X373346D02*
D03*
X338653D02*
D03*
X345346D02*
D03*
X400654Y467000D02*
D03*
X407346D02*
D03*
Y459500D02*
D03*
X400654D02*
D03*
X221346Y408000D02*
D03*
X214653D02*
D03*
Y370500D02*
D03*
X221346D02*
D03*
Y433500D02*
D03*
X214653D02*
D03*
Y400500D02*
D03*
X221346D02*
D03*
Y393000D02*
D03*
X214653D02*
D03*
Y385500D02*
D03*
X221346D02*
D03*
D12*
X302240Y477000D02*
D03*
X294760D02*
D03*
X302240Y485000D02*
D03*
X294760D02*
D03*
D13*
X207500Y483000D02*
D03*
Y469000D02*
D03*
X268000Y482500D02*
D03*
Y468500D02*
D03*
D14*
X220000Y478847D02*
D03*
Y472154D02*
D03*
X279500Y478847D02*
D03*
Y472154D02*
D03*
X277000Y420346D02*
D03*
Y413654D02*
D03*
X291000Y420346D02*
D03*
Y413654D02*
D03*
X303500Y420346D02*
D03*
Y413654D02*
D03*
X365000Y421347D02*
D03*
Y414653D02*
D03*
X323000Y411346D02*
D03*
Y404654D02*
D03*
X349500Y421347D02*
D03*
Y414653D02*
D03*
X328000Y376847D02*
D03*
Y370153D02*
D03*
X369000Y481847D02*
D03*
Y475153D02*
D03*
X376500D02*
D03*
Y481847D02*
D03*
X315500Y411346D02*
D03*
Y404654D02*
D03*
X311500Y378346D02*
D03*
Y371654D02*
D03*
X410000Y397153D02*
D03*
Y403847D02*
D03*
X418500D02*
D03*
Y397153D02*
D03*
D15*
X247000Y411500D02*
D03*
X261000D02*
D03*
X247000Y373500D02*
D03*
X261000D02*
D03*
D16*
X189000Y467339D02*
D03*
Y484661D02*
D03*
D17*
X230000Y424500D02*
D03*
X216000D02*
D03*
X184500Y418520D02*
D03*
D18*
X354949Y470000D02*
D03*
Y475000D02*
D03*
Y480000D02*
D03*
Y485000D02*
D03*
X336051Y470000D02*
D03*
Y475000D02*
D03*
Y480000D02*
D03*
Y485000D02*
D03*
D19*
X255787Y475000D02*
D03*
D20*
X229213Y465945D02*
D03*
Y475000D02*
D03*
D21*
Y484055D02*
D03*
D22*
X370642Y396827D02*
D03*
Y394858D02*
D03*
Y392890D02*
D03*
Y390921D02*
D03*
Y388953D02*
D03*
Y386984D02*
D03*
Y385016D02*
D03*
Y383047D02*
D03*
Y381079D02*
D03*
Y379110D02*
D03*
Y377142D02*
D03*
Y375173D02*
D03*
X338358D02*
D03*
Y377142D02*
D03*
Y379110D02*
D03*
Y381079D02*
D03*
Y383047D02*
D03*
Y385016D02*
D03*
Y386984D02*
D03*
Y388953D02*
D03*
Y390921D02*
D03*
Y392890D02*
D03*
Y394858D02*
D03*
Y396827D02*
D03*
D23*
X365327Y369858D02*
D03*
X363358D02*
D03*
X361390D02*
D03*
X359421D02*
D03*
X357453D02*
D03*
X355484D02*
D03*
X353516D02*
D03*
X351547D02*
D03*
X349579D02*
D03*
X347610D02*
D03*
X345642D02*
D03*
X343673D02*
D03*
Y402142D02*
D03*
X345642D02*
D03*
X347610D02*
D03*
X349579D02*
D03*
X351547D02*
D03*
X353516D02*
D03*
X355484D02*
D03*
X357453D02*
D03*
X359421D02*
D03*
X361390D02*
D03*
X363358D02*
D03*
X365327D02*
D03*
D24*
X303634Y401173D02*
D03*
X301075D02*
D03*
X298516D02*
D03*
X295957D02*
D03*
X293398D02*
D03*
X290839D02*
D03*
X288280D02*
D03*
X285720D02*
D03*
X283161D02*
D03*
X280602D02*
D03*
X278043D02*
D03*
X275484D02*
D03*
X272925D02*
D03*
X270366D02*
D03*
X303634Y372827D02*
D03*
X301075D02*
D03*
X298516D02*
D03*
X295957D02*
D03*
X293398D02*
D03*
X290839D02*
D03*
X288280D02*
D03*
X285720D02*
D03*
X283161D02*
D03*
X280602D02*
D03*
X278043D02*
D03*
X275484D02*
D03*
X272925D02*
D03*
X270366D02*
D03*
D25*
X299020Y436017D02*
D03*
X263980Y435983D02*
D03*
X373520Y437517D02*
D03*
X338480Y437483D02*
D03*
D30*
X426000Y453000D02*
D03*
Y463000D02*
D03*
Y473000D02*
D03*
Y483000D02*
D03*
D31*
X415000Y362500D02*
D03*
X404000Y386500D02*
D03*
D32*
X405000Y362500D02*
D03*
X395000D02*
D03*
X385000D02*
D03*
X140209Y375016D02*
D03*
Y426984D02*
D03*
X414000Y386500D02*
D03*
X433500Y431000D02*
D03*
Y421000D02*
D03*
Y411000D02*
D03*
D33*
X159000Y456500D02*
D03*
D34*
X147000Y476500D02*
D03*
X171000D02*
D03*
D35*
X140209Y417000D02*
D03*
Y385000D02*
D03*
D36*
X184500Y388520D02*
D03*
X194500Y393520D02*
D03*
X184500Y408520D02*
D03*
X194500Y413520D02*
D03*
Y403520D02*
D03*
X184500Y398520D02*
D03*
X194500Y383520D02*
D03*
D37*
X171500Y431512D02*
D03*
Y370488D02*
D03*
D38*
X433500Y401000D02*
D03*
M02*
