%FSLAX25Y25*%
%MOIN*%
G70*
G01*
G75*
G04 Layer_Physical_Order=2*
G04 Layer_Color=16711680*
%ADD10C,0.02000*%
%ADD11R,0.04331X0.03937*%
%ADD12R,0.05118X0.05906*%
%ADD13R,0.09843X0.07087*%
%ADD14R,0.03937X0.04331*%
%ADD15R,0.07087X0.09843*%
%ADD16R,0.14173X0.09843*%
%ADD17R,0.06000X0.06000*%
%ADD18O,0.08661X0.02362*%
%ADD19R,0.06102X0.13583*%
%ADD20R,0.06102X0.04331*%
%ADD21R,0.06102X0.04331*%
%ADD22O,0.08268X0.01181*%
%ADD23O,0.01181X0.08268*%
%ADD24R,0.01496X0.08661*%
%ADD25O,0.17323X0.05906*%
%ADD26C,0.01500*%
%ADD27C,0.01000*%
%ADD28C,0.00800*%
%ADD29C,0.05000*%
%ADD30C,0.05118*%
%ADD31R,0.05906X0.05906*%
%ADD32C,0.05906*%
%ADD33O,0.17716X0.07874*%
%ADD34O,0.07874X0.17716*%
%ADD35C,0.05906*%
%ADD36C,0.06000*%
%ADD37C,0.06693*%
%ADD38R,0.05906X0.05906*%
%ADD39C,0.05000*%
%ADD40C,0.04000*%
D10*
X426656Y477512D02*
G03*
X431528Y483000I-656J5488D01*
G01*
X430559Y473000D02*
G03*
X426656Y477512I-4559J0D01*
G01*
Y468488D02*
G03*
X430559Y473000I-656J4512D01*
G01*
X428357Y458000D02*
G03*
X431528Y463000I-2357J5000D01*
G01*
D02*
G03*
X426656Y468488I-5528J0D01*
G01*
X431528Y483000D02*
G03*
X425344Y477512I-5528J0D01*
G01*
X408311Y486000D02*
G03*
X403749Y496032I-13311J0D01*
G01*
X425344Y477512D02*
G03*
X425344Y468488I656J-4512D01*
G01*
D02*
G03*
X423643Y458000I656J-5488D01*
G01*
D02*
G03*
X431528Y453000I2357J-5000D01*
G01*
X386543Y475721D02*
G03*
X408311Y486000I8457J10279D01*
G01*
X402368Y458500D02*
G03*
X401382Y460882I-3368J0D01*
G01*
X435626Y426527D02*
G03*
X438453Y431000I-2126J4473D01*
G01*
D02*
G03*
X431374Y426527I-4953J0D01*
G01*
X436672Y416000D02*
G03*
X439421Y421000I-3172J5000D01*
G01*
D02*
G03*
X435626Y426527I-5921J0D01*
G01*
X437792Y406921D02*
G03*
X439421Y411000I-4293J4079D01*
G01*
D02*
G03*
X436672Y416000I-5921J0D01*
G01*
X431528Y453000D02*
G03*
X428357Y458000I-5528J0D01*
G01*
X431374Y426527D02*
G03*
X430328Y416000I2126J-5527D01*
G01*
D02*
G03*
X429208Y406921I3172J-5000D01*
G01*
X365968Y493000D02*
G03*
X365051Y496032I-5469J0D01*
G01*
X386251D02*
G03*
X384721Y477543I8749J-10031D01*
G01*
X379882Y482382D02*
G03*
X377500Y483368I-2382J-2382D01*
G01*
X379882Y482382D02*
G03*
X377500Y483368I-2382J-2382D01*
G01*
X360500Y487532D02*
G03*
X365968Y493000I0J5469D01*
G01*
X366557Y483368D02*
G03*
X358636Y477376I-4057J-2868D01*
G01*
D02*
G03*
X358862Y472250I4363J-2376D01*
G01*
X402368Y458500D02*
G03*
X401382Y460882I-3368J0D01*
G01*
X379367Y418367D02*
G03*
X375500Y419969I-3867J-3867D01*
G01*
X379372Y418362D02*
G03*
X375500Y419969I-3872J-3862D01*
G01*
X358862Y472250D02*
G03*
X366652Y466131I4138J-2750D01*
G01*
X388968Y406500D02*
G03*
X387362Y410372I-5469J0D01*
G01*
X388968Y406500D02*
G03*
X387367Y410367I-5469J0D01*
G01*
X341367Y421367D02*
G03*
X337500Y422968I-3867J-3867D01*
G01*
X341372Y421362D02*
G03*
X337500Y422968I-3872J-3862D01*
G01*
X336633Y410633D02*
G03*
X336917Y410368I3867J3867D01*
G01*
X336628Y410638D02*
G03*
X336917Y410368I3872J3862D01*
G01*
X333000D02*
G03*
X330618Y409382I0J-3368D01*
G01*
X333000Y410368D02*
G03*
X330618Y409382I0J-3368D01*
G01*
X436306Y394694D02*
G03*
X436644Y395079I-2806J2806D01*
G01*
X436302Y394690D02*
G03*
X436644Y395079I-2802J2810D01*
G01*
X445532Y374488D02*
G03*
X419935Y367453I-12531J-4488D01*
G01*
X387469Y399238D02*
G03*
X388968Y403000I-3968J3762D01*
G01*
X419374Y388986D02*
G03*
X409921Y390792I-5374J-2486D01*
G01*
X386302Y392190D02*
G03*
X387469Y395000I-2802J2810D01*
G01*
X389515Y386542D02*
G03*
X383378Y384774I-2015J-4541D01*
G01*
X419953Y367363D02*
G03*
X445532Y365512I13047J2637D01*
G01*
X410000Y370031D02*
G03*
X412810Y371198I0J3968D01*
G01*
X410000Y370031D02*
G03*
X412806Y371194I0J3968D01*
G01*
X410047Y365596D02*
G03*
X408718Y367108I-5047J-3096D01*
G01*
X400000Y359328D02*
G03*
X410047Y359404I5000J3172D01*
G01*
X380130Y359132D02*
G03*
X390000Y359328I4870J3368D01*
G01*
D02*
G03*
X400000Y359328I5000J3172D01*
G01*
X378031Y403000D02*
G03*
X379532Y399238I5469J0D01*
G01*
X386306Y392194D02*
G03*
X387469Y395000I-2806J2806D01*
G01*
X358484Y394484D02*
G03*
X356884Y398136I-4969J0D01*
G01*
X373198Y390310D02*
G03*
X372031Y387500I2802J-2810D01*
G01*
X373194Y390306D02*
G03*
X372031Y387500I2806J-2806D01*
G01*
X356884Y399984D02*
G03*
X355898Y402366I-3368J0D01*
G01*
X356884Y399984D02*
G03*
X355898Y402366I-3368J0D01*
G01*
X350147Y398136D02*
G03*
X358484Y394484I3368J-3652D01*
G01*
X354918Y383710D02*
G03*
X346348Y386368I-4918J-710D01*
G01*
X344500D02*
G03*
X342118Y385382I0J-3368D01*
G01*
X344500Y386368D02*
G03*
X342118Y385382I0J-3368D01*
G01*
X383378Y384774D02*
G03*
X379969Y384534I-1378J-4774D01*
G01*
X372031Y378000D02*
G03*
X372791Y375665I3968J0D01*
G01*
X372031Y378000D02*
G03*
X372791Y375665I3968J0D01*
G01*
D02*
G03*
X370871Y374393I1709J-4665D01*
G01*
X367469Y378000D02*
G03*
X360146Y382375I-4969J0D01*
G01*
D02*
G03*
X354918Y383710I-3646J-3375D01*
G01*
X364618Y360118D02*
G03*
X367000Y359132I2382J2382D01*
G01*
X364618Y360118D02*
G03*
X367000Y359132I2382J2382D01*
G01*
X340618Y383882D02*
G03*
X339632Y381500I2382J-2382D01*
G01*
X340618Y383882D02*
G03*
X339632Y381500I2382J-2382D01*
G01*
X349868Y373307D02*
G03*
X351701Y373036I1632J4693D01*
G01*
X337968Y370500D02*
G03*
X330011Y374468I-4969J0D01*
G01*
Y366531D02*
G03*
X337968Y370500I2990J3968D01*
G01*
X325194Y367694D02*
G03*
X328000Y366531I2806J2806D01*
G01*
X348882Y362618D02*
G03*
X349868Y365000I-2382J2382D01*
G01*
X348882Y362618D02*
G03*
X349868Y365000I-2382J2382D01*
G01*
X341500Y356631D02*
G03*
X343882Y357618I0J3368D01*
G01*
X341500Y356631D02*
G03*
X343882Y357618I0J3368D01*
G01*
X306218Y476015D02*
G03*
X302346Y477622I-3872J-3862D01*
G01*
X306213Y476020D02*
G03*
X302346Y477622I-3867J-3867D01*
G01*
X285500D02*
G03*
X285500Y466685I0J-5469D01*
G01*
X320500Y457531D02*
G03*
X324372Y459138I0J5469D01*
G01*
X320500Y457531D02*
G03*
X324367Y459133I0J5469D01*
G01*
X306031Y417984D02*
G03*
X304211Y415323I2968J-3984D01*
G01*
X206482Y420782D02*
G03*
X204100Y421769I-2382J-2382D01*
G01*
X206482Y420782D02*
G03*
X204100Y421769I-2382J-2382D01*
G01*
X177905Y481421D02*
G03*
X164094Y481421I-6905J0D01*
G01*
Y471579D02*
G03*
X177905Y471579I6905J0D01*
G01*
X152937Y481421D02*
G03*
X141063Y481421I-5937J0D01*
G01*
Y471579D02*
G03*
X152937Y471579I5937J0D01*
G01*
X169858Y456500D02*
G03*
X163921Y462437I-5937J0D01*
G01*
Y450563D02*
G03*
X169858Y456500I0J5937D01*
G01*
X154079Y462437D02*
G03*
X154079Y450563I0J-5937D01*
G01*
X176754Y432500D02*
G03*
X166246Y432500I-5254J-988D01*
G01*
X162748D02*
G03*
X156252Y432500I-3248J-8996D01*
G01*
X143311Y445500D02*
G03*
X127139Y432500I-13311J0D01*
G01*
X132861D02*
G03*
X143311Y445500I-2861J13000D01*
G01*
X142362Y432500D02*
G03*
X138055Y432500I-2154J-5516D01*
G01*
X312968Y411011D02*
G03*
X313562Y412032I-3968J2990D01*
G01*
X303500Y405031D02*
G03*
X305031Y405339I0J3968D01*
G01*
X303500Y405031D02*
G03*
X305031Y405339I0J3968D01*
G01*
X330201Y408964D02*
G03*
X334955Y403631I-201J-4964D01*
G01*
X293172Y412968D02*
G03*
X288828Y412968I-2172J-4468D01*
G01*
X287442Y405031D02*
G03*
X294557Y405031I3557J3469D01*
G01*
X280489Y412968D02*
G03*
X274511Y412968I-2990J-3968D01*
G01*
X271989D02*
G03*
X271989Y405031I-2990J-3968D01*
G01*
X274511D02*
G03*
X280489Y405031I2990J3968D01*
G01*
X270468Y394500D02*
G03*
X262132Y390848I-4969J0D01*
G01*
X268868D02*
G03*
X270468Y394500I-3368J3652D01*
G01*
X305031Y389500D02*
G03*
X306198Y386690I3968J0D01*
G01*
X305031Y389500D02*
G03*
X306194Y386694I3968J0D01*
G01*
X287882Y367882D02*
G03*
X285500Y368868I-2382J-2382D01*
G01*
X325190Y367698D02*
G03*
X328000Y366531I2810J2802D01*
G01*
X287882Y367882D02*
G03*
X285500Y368868I-2382J-2382D01*
G01*
X283398Y357037D02*
G03*
X285000Y356631I1602J2963D01*
G01*
X283398Y357037D02*
G03*
X285000Y356631I1602J2963D01*
G01*
X267882Y378618D02*
G03*
X268868Y381000I-2382J2382D01*
G01*
X267882Y378618D02*
G03*
X268868Y381000I-2382J2382D01*
G01*
X278410Y360548D02*
G03*
X283398Y357037I4752J1452D01*
G01*
X281652Y368868D02*
G03*
X278410Y360548I-3652J-3368D01*
G01*
X234404Y404200D02*
G03*
X234968Y406500I-4404J2300D01*
G01*
D02*
G03*
X225357Y408268I-4969J0D01*
G01*
X234968Y401900D02*
G03*
X234404Y404200I-4969J0D01*
G01*
X225357Y400132D02*
G03*
X234968Y401900I4643J1768D01*
G01*
X237469Y391600D02*
G03*
X227857Y393369I-4969J0D01*
G01*
X206882Y400382D02*
G03*
X204500Y401369I-2382J-2382D01*
G01*
X214638Y401118D02*
G03*
X217020Y400132I2382J2382D01*
G01*
X214638Y401118D02*
G03*
X217020Y400132I2382J2382D01*
G01*
X206882Y400382D02*
G03*
X204500Y401369I-2382J-2382D01*
G01*
X255000Y367131D02*
G03*
X257382Y368118I0J3368D01*
G01*
X255000Y367131D02*
G03*
X257382Y368118I0J3368D01*
G01*
X237469Y387000D02*
G03*
X236904Y389300I-4969J0D01*
G01*
D02*
G03*
X237469Y391600I-4404J2300D01*
G01*
X227857Y385231D02*
G03*
X237469Y387000I4643J1768D01*
G01*
X209538Y386218D02*
G03*
X211920Y385231I2382J2382D01*
G01*
X209538Y386218D02*
G03*
X211920Y385231I2382J2382D01*
G01*
X233152Y373868D02*
G03*
X233152Y367131I-3652J-3368D01*
G01*
X431436Y484000D02*
X445532D01*
X430643Y486000D02*
X445532D01*
X431436Y482000D02*
X445532D01*
X428357Y488000D02*
X445532D01*
X430643Y480000D02*
X445532D01*
X430448Y474000D02*
X445532D01*
X428357Y478000D02*
X445532D01*
X429433Y476000D02*
X445532D01*
X430000Y486815D02*
Y496032D01*
X428000Y488153D02*
Y496032D01*
X430000Y475187D02*
Y479185D01*
X426000Y488528D02*
Y496032D01*
X428000Y477097D02*
Y477847D01*
X424000Y477097D02*
Y477847D01*
X430448Y472000D02*
X445532D01*
X436000Y435276D02*
Y496032D01*
X438000Y433069D02*
Y496032D01*
X429433Y470000D02*
X445532D01*
X428357Y468000D02*
X445532D01*
X431436Y464000D02*
X445532D01*
X431436Y462000D02*
X445532D01*
X430643Y466000D02*
X445532D01*
X430643Y460000D02*
X445532D01*
X434000Y435927D02*
Y496032D01*
X430000Y466815D02*
Y470813D01*
X432000Y435720D02*
Y496032D01*
X430000Y456815D02*
Y459185D01*
X428000Y468153D02*
Y468903D01*
X406882Y492000D02*
X445532D01*
X405639Y494000D02*
X445532D01*
X424000Y488153D02*
Y496032D01*
X403749D02*
X445532D01*
X403785Y496000D02*
X445532D01*
X408160Y488000D02*
X423643D01*
X407696Y490000D02*
X445532D01*
X405639Y478000D02*
X423643D01*
X422000Y486815D02*
Y496032D01*
X408000Y488861D02*
Y496032D01*
X408311Y486000D02*
X421357D01*
X406000Y493496D02*
Y496032D01*
X408160Y484000D02*
X420564D01*
X407696Y482000D02*
X420564D01*
X406882Y480000D02*
X421357D01*
X403785Y476000D02*
X422567D01*
X422000Y475187D02*
Y479185D01*
X424000Y468153D02*
Y468903D01*
X392264Y470000D02*
X422567D01*
X422000Y456815D02*
Y459185D01*
X394264Y468000D02*
X423643D01*
X422000Y466815D02*
Y470813D01*
X400761Y474000D02*
X421552D01*
X396264Y466000D02*
X421357D01*
X390264Y472000D02*
X421552D01*
X402016Y460000D02*
X421357D01*
X398264Y464000D02*
X420564D01*
X400264Y462000D02*
X420564D01*
X431436Y454000D02*
X445532D01*
X430643Y456000D02*
X445532D01*
X431436Y452000D02*
X445532D01*
X430643Y450000D02*
X445532D01*
X428357Y448000D02*
X445532D01*
X438351Y432000D02*
X445532D01*
X438351Y430000D02*
X445532D01*
X437441Y434000D02*
X445532D01*
X436672Y426000D02*
X445532D01*
X430000Y434504D02*
Y449185D01*
X437441Y428000D02*
X445532D01*
X436000Y426368D02*
Y426724D01*
X430000Y425776D02*
Y427496D01*
X439336Y422000D02*
X445532D01*
X438605Y424000D02*
X445532D01*
X439336Y420000D02*
X445532D01*
X438605Y418000D02*
X445532D01*
X436672Y416000D02*
X445532D01*
X439336Y412000D02*
X445532D01*
X439421Y406000D02*
X445532D01*
X438605Y414000D02*
X445532D01*
X438605Y408000D02*
X445532D01*
X438000Y424849D02*
Y428931D01*
Y414849D02*
Y417151D01*
X430000Y415776D02*
Y416224D01*
X439336Y410000D02*
X445532D01*
X437792Y406921D02*
X439421D01*
X428357Y458000D02*
X445532D01*
X402368Y446000D02*
X445532D01*
X402368Y444000D02*
X445532D01*
X402368Y442000D02*
X445532D01*
X402368Y436000D02*
X445532D01*
X402368Y428000D02*
X429559D01*
X402368Y440000D02*
X445532D01*
X402368Y438000D02*
X445532D01*
X402368Y452000D02*
X420564D01*
X402368Y454000D02*
X420564D01*
X402368Y450000D02*
X421357D01*
X402368Y458000D02*
X423643D01*
X402368Y456000D02*
X421357D01*
X402368Y432000D02*
X428649D01*
X402368Y430000D02*
X428649D01*
X402368Y448000D02*
X423643D01*
X402368Y434000D02*
X429559D01*
X402368Y426000D02*
X430328D01*
X402368Y424000D02*
X428395D01*
X402368Y418000D02*
X428395D01*
X402368Y408000D02*
X428395D01*
X427579Y406921D02*
X429208D01*
X402368Y416000D02*
X430328D01*
X402368Y414000D02*
X428395D01*
X428000Y423194D02*
Y447847D01*
Y413194D02*
Y418807D01*
X402368Y422000D02*
X427664D01*
X402368Y420000D02*
X427664D01*
X402368Y412000D02*
X427664D01*
X428000Y406921D02*
Y408807D01*
X402368Y410000D02*
X427664D01*
X402368Y406000D02*
X427579D01*
X384000Y493496D02*
Y496032D01*
X382000Y488861D02*
Y496032D01*
X378000Y483331D02*
Y496032D01*
X365051D02*
X386251D01*
X365072Y496000D02*
X386215D01*
X365876Y494000D02*
X384361D01*
X366026Y484000D02*
X381840D01*
X365876Y492000D02*
X383118D01*
X365072Y490000D02*
X382304D01*
X374000Y483368D02*
Y496032D01*
X372000Y483368D02*
Y496032D01*
X376000Y483368D02*
Y496032D01*
X370000Y483368D02*
Y496032D01*
X366557Y483368D02*
X377500D01*
X368000D02*
Y496032D01*
X364000Y485237D02*
Y488798D01*
X366000Y484026D02*
Y496032D01*
X400000Y462264D02*
Y473664D01*
X390000Y472264D02*
Y473664D01*
X402000Y460032D02*
Y474678D01*
X388264Y474000D02*
X389240D01*
X386543Y475721D02*
X401382Y460882D01*
X396000Y466264D02*
Y472727D01*
X398000Y464264D02*
Y473032D01*
X392000Y470264D02*
Y473032D01*
X394000Y468264D02*
Y472727D01*
X382000Y480264D02*
Y483139D01*
X380000Y482264D02*
Y496032D01*
X382264Y480000D02*
X383118D01*
X388000Y474264D02*
Y474678D01*
X380264Y482000D02*
X382304D01*
X379882Y482382D02*
X384721Y477543D01*
X362715Y488000D02*
X381840D01*
X362000Y485443D02*
Y487741D01*
X352765Y487532D02*
X360500D01*
X358000Y482606D02*
Y487532D01*
X351234Y486000D02*
X381689D01*
X360000Y484794D02*
Y487532D01*
X349234Y484000D02*
X358974D01*
X347234Y482000D02*
X357763D01*
X338000Y488234D02*
Y496032D01*
X336000Y486234D02*
Y496032D01*
X334000Y484234D02*
Y496032D01*
X332000Y482234D02*
Y496032D01*
X330000Y480234D02*
Y496032D01*
X344000Y494234D02*
Y496032D01*
X345234Y480000D02*
X357557D01*
X342000Y492234D02*
Y496032D01*
X340000Y490234D02*
Y496032D01*
X358000Y419969D02*
Y478394D01*
X356000Y419969D02*
Y487532D01*
X352000Y419969D02*
Y486766D01*
X354000Y419969D02*
Y487532D01*
X343234Y478000D02*
X358206D01*
X341234Y476000D02*
X358133D01*
X339234Y474000D02*
X358133D01*
X348000Y419969D02*
Y482766D01*
X346000Y419969D02*
Y480766D01*
X350000Y419969D02*
Y484766D01*
X328000Y478234D02*
Y496032D01*
X326000Y476234D02*
Y496032D01*
X342000Y420734D02*
Y476766D01*
X344000Y419969D02*
Y478766D01*
X338000Y422946D02*
Y472766D01*
X340000Y422364D02*
Y474766D01*
X377105Y466131D02*
X389632Y453605D01*
X376000Y419946D02*
Y466131D01*
X378000Y419364D02*
Y465236D01*
X366652Y466131D02*
X377105D01*
X366527Y466000D02*
X377236D01*
X371000Y419969D02*
X375500D01*
X372000D02*
Y466131D01*
X370000Y419969D02*
Y466131D01*
X374000Y419969D02*
Y466131D01*
X368000Y419969D02*
Y466131D01*
X364000Y419969D02*
Y464633D01*
X366000Y419969D02*
Y465540D01*
X360000Y419969D02*
Y465540D01*
X362000Y419969D02*
Y464633D01*
X385734Y412000D02*
X389632D01*
X383734Y414000D02*
X389632D01*
X379734Y418000D02*
X389632D01*
X381734Y416000D02*
X389632D01*
X388759Y408000D02*
X389632D01*
X388968Y406000D02*
X389632D01*
X387702Y410000D02*
X389632D01*
X386000Y411734D02*
Y457236D01*
X384000Y413734D02*
Y459236D01*
X388000Y409607D02*
Y455236D01*
X380000Y417734D02*
Y463236D01*
X382000Y415734D02*
Y461236D01*
X379372Y418362D02*
X387362Y410372D01*
X354000Y404264D02*
Y409031D01*
X352000Y406264D02*
Y409031D01*
X352264Y406000D02*
X376266D01*
X337234Y472000D02*
X358706D01*
X333234Y468000D02*
X358263D01*
X331234Y466000D02*
X359473D01*
X329234Y464000D02*
X379236D01*
X327234Y462000D02*
X381236D01*
X342734Y420000D02*
X389632D01*
X342765Y419969D02*
X371000D01*
X325234Y460000D02*
X383236D01*
X340607Y422000D02*
X389632D01*
X335234Y470000D02*
X358057D01*
X336000Y422968D02*
Y470766D01*
X334000Y422968D02*
Y468766D01*
X330000Y422968D02*
Y464766D01*
X332000Y422968D02*
Y466766D01*
X326000Y422968D02*
Y460766D01*
X328000Y422968D02*
Y462766D01*
X341372Y421362D02*
X342765Y419969D01*
X335235Y412032D02*
X336628Y410638D01*
X336000Y410368D02*
Y411266D01*
X350000Y408264D02*
Y409031D01*
X350264Y408000D02*
X374266D01*
X333000Y410368D02*
X336917D01*
X349232Y409031D02*
X373235D01*
X334000Y410368D02*
Y412032D01*
X332000Y410217D02*
Y412032D01*
X330000Y408968D02*
Y412032D01*
X328000Y408548D02*
Y412032D01*
X330201Y408964D02*
X330618Y409382D01*
X326000Y406947D02*
Y412032D01*
X439421Y400000D02*
X445532D01*
X439421Y402000D02*
X445532D01*
X439421Y398000D02*
X445532D01*
X439421Y404000D02*
X445532D01*
X439421Y395079D02*
Y406921D01*
Y396000D02*
X445532D01*
X435612Y394000D02*
X445532D01*
X433612Y392000D02*
X445532D01*
X431612Y390000D02*
X445532D01*
X427579Y397191D02*
Y406921D01*
X426000Y395612D02*
Y447472D01*
X424000Y393612D02*
Y447847D01*
X422000Y391612D02*
Y449185D01*
X420000Y389612D02*
Y496032D01*
X436644Y395079D02*
X439421D01*
X418776Y390000D02*
X420388D01*
X444000Y377496D02*
Y496032D01*
X442000Y379807D02*
Y496032D01*
X445532Y374488D02*
Y496032D01*
X429612Y388000D02*
X445532D01*
X440000Y381322D02*
Y496032D01*
X427612Y386000D02*
X445532D01*
X438761Y382000D02*
X445532D01*
X425612Y384000D02*
X445532D01*
X436000Y382969D02*
Y394388D01*
X434000Y383273D02*
Y392388D01*
X438000Y382336D02*
Y395079D01*
X419374Y388986D02*
X427579Y397191D01*
X432000Y383273D02*
Y390388D01*
X430000Y382969D02*
Y388388D01*
X428000Y382336D02*
Y386388D01*
X426000Y381322D02*
Y384388D01*
X424000Y379807D02*
Y382388D01*
X402368Y404000D02*
X427579D01*
X408000Y392421D02*
Y483139D01*
X414000Y392421D02*
Y496032D01*
X402368Y402000D02*
X427579D01*
X402368Y400000D02*
X427579D01*
X402368Y394000D02*
X424388D01*
X402368Y392421D02*
X409921D01*
X402368Y398000D02*
X427579D01*
X402368Y396000D02*
X426388D01*
X388968Y404000D02*
X389632D01*
X388968Y403000D02*
Y406500D01*
X402368Y392421D02*
Y458500D01*
X388876Y402000D02*
X389632D01*
X388072Y400000D02*
X389632D01*
X387469Y398000D02*
X389632D01*
X387469Y396000D02*
X389632D01*
X387340Y394000D02*
X389632D01*
X418000Y390866D02*
Y496032D01*
X416000Y392073D02*
Y496032D01*
X412810Y371198D02*
X436302Y394690D01*
X412000Y392073D02*
Y496032D01*
X410000Y390866D02*
Y496032D01*
X409921Y392000D02*
X411806D01*
X416193D02*
X422388D01*
X409921Y390792D02*
Y392421D01*
X406000D02*
Y478504D01*
X404000Y392421D02*
Y476193D01*
X389632Y386652D02*
Y453605D01*
X388000Y386943D02*
Y399893D01*
X386112Y392000D02*
X389632D01*
X384112Y390000D02*
X389632D01*
X382112Y388000D02*
X389632D01*
X443639Y378000D02*
X445532D01*
X441785Y380000D02*
X445532D01*
X444882Y376000D02*
X445532D01*
X423612Y382000D02*
X427240D01*
X421612Y380000D02*
X424215D01*
X444882Y364000D02*
X445532D01*
X443639Y362000D02*
X445532D01*
X419953Y360000D02*
X424215D01*
X441785D02*
X445532D01*
X419612Y378000D02*
X422361D01*
X422000Y377496D02*
Y380388D01*
X420000Y372861D02*
Y378388D01*
X417612Y376000D02*
X421118D01*
X418000Y367453D02*
Y376388D01*
X419953Y364000D02*
X421118D01*
X419953Y362000D02*
X422361D01*
X416000Y367453D02*
Y374388D01*
X419953Y366000D02*
X420304D01*
X444000Y356469D02*
Y362504D01*
X442000Y356469D02*
Y360193D01*
X445532Y356469D02*
Y365512D01*
X440000Y356469D02*
Y358678D01*
X438761Y358000D02*
X445532D01*
X438000Y356469D02*
Y357664D01*
X430000Y356469D02*
Y357031D01*
X436000Y356469D02*
Y357031D01*
X424000Y356469D02*
Y360193D01*
X422000Y356469D02*
Y362504D01*
X426000Y356469D02*
Y358678D01*
X419953Y357547D02*
Y367363D01*
X420000Y356469D02*
Y367139D01*
X419953Y358000D02*
X427240D01*
X428000Y356469D02*
Y357664D01*
X416000Y356469D02*
Y357547D01*
X418000Y356469D02*
Y357547D01*
X415612Y374000D02*
X420304D01*
X413612Y372000D02*
X419840D01*
X414000Y367453D02*
Y372388D01*
X408718Y370000D02*
X419689D01*
X408718Y368000D02*
X419840D01*
X410047Y367453D02*
X419935D01*
X412000D02*
Y370572D01*
X408718Y367108D02*
Y370031D01*
X410000Y365672D02*
Y370031D01*
X410047Y365596D02*
Y367453D01*
X408848Y358000D02*
X410047D01*
X408718Y370031D02*
X410000D01*
X414000Y356469D02*
Y357547D01*
X410047D02*
Y359404D01*
X410000Y356469D02*
Y359328D01*
X398849Y358000D02*
X401152D01*
X410047Y357547D02*
X419953D01*
X412000Y356469D02*
Y357547D01*
X402000Y356469D02*
Y357395D01*
X408000Y356469D02*
Y357395D01*
X390000Y356469D02*
Y359328D01*
X400000Y356469D02*
Y359328D01*
X392000Y356469D02*
Y357395D01*
X398000Y356469D02*
Y357395D01*
X388848Y358000D02*
X391151D01*
X388000Y356469D02*
Y357395D01*
X379532Y396644D02*
Y399238D01*
X387469Y395000D02*
Y399238D01*
X373235Y409031D02*
X378031Y404235D01*
X356884Y400000D02*
X378928D01*
X373198Y390310D02*
X379532Y396644D01*
X357027Y398000D02*
X379532D01*
X358247Y396000D02*
X378888D01*
X378031Y403000D02*
Y404235D01*
X378000Y395112D02*
Y404266D01*
X376000Y393112D02*
Y406266D01*
X358000Y396624D02*
Y409031D01*
X374000Y391112D02*
Y408266D01*
X358461Y394000D02*
X376888D01*
X357819Y392000D02*
X374888D01*
X356884Y398136D02*
Y399984D01*
X379969Y385856D02*
X386302Y392190D01*
X386000Y386737D02*
Y391888D01*
X384000Y385526D02*
Y389888D01*
X380112Y386000D02*
X384553D01*
X382000Y384968D02*
Y387888D01*
X380000Y384548D02*
Y385888D01*
X379969Y384534D02*
Y385856D01*
X372000Y375294D02*
Y409031D01*
X368000Y377264D02*
Y409031D01*
X370000Y375264D02*
Y409031D01*
X360000Y382526D02*
Y409031D01*
X366000Y381526D02*
Y409031D01*
X364000Y382737D02*
Y409031D01*
X372031Y378000D02*
Y387500D01*
X358000Y383737D02*
Y392345D01*
X362000Y382943D02*
Y409031D01*
X356000Y402259D02*
Y409031D01*
X354264Y404000D02*
X378031D01*
X349232Y409031D02*
X355898Y402366D01*
X356215Y402000D02*
X378124D01*
X355655Y390000D02*
X372918D01*
X352000Y387548D02*
Y389753D01*
X345105Y403631D02*
X350147Y398589D01*
X348000Y387548D02*
Y400736D01*
X346000Y386368D02*
Y402736D01*
X334955Y403631D02*
X345105D01*
X334548Y402000D02*
X346736D01*
X350147Y398136D02*
Y398589D01*
X350000Y397995D02*
Y398736D01*
X332947Y400000D02*
X348736D01*
X350000Y387968D02*
Y390973D01*
X356000Y383943D02*
Y390181D01*
X354000Y385947D02*
Y389539D01*
X344500Y386368D02*
X346348D01*
X344000Y386331D02*
Y403631D01*
X353961Y386000D02*
X372031D01*
X340618Y383882D02*
X342118Y385382D01*
X342000Y385264D02*
Y403631D01*
X340000Y383032D02*
Y403631D01*
X338000Y365369D02*
Y403631D01*
X334000Y375367D02*
Y401053D01*
X336000Y374461D02*
Y403631D01*
X332000Y375367D02*
Y399452D01*
X330000Y374468D02*
Y399031D01*
X326000Y378112D02*
Y401053D01*
X328000Y376112D02*
Y399452D01*
X354867Y384000D02*
X372031D01*
X367048Y380000D02*
X372031D01*
X369264Y376000D02*
X372572D01*
X367469Y378000D02*
X372031D01*
X367000Y359132D02*
X380130D01*
X365447Y382000D02*
X372031D01*
X367464Y377799D02*
X370871Y374393D01*
X351701Y373036D02*
X364618Y360118D01*
X349868Y366000D02*
X358736D01*
X349868Y372000D02*
X352736D01*
X349868Y370000D02*
X354736D01*
X372000Y356469D02*
Y359132D01*
X370000Y356469D02*
Y359132D01*
X374000Y356469D02*
Y359132D01*
X368000Y356469D02*
Y359132D01*
X380000Y356469D02*
Y359132D01*
X382000Y356469D02*
Y357395D01*
X376000Y356469D02*
Y359132D01*
X378000Y356469D02*
Y359132D01*
X356000Y356469D02*
Y368736D01*
X354000Y356469D02*
Y370736D01*
X358000Y356469D02*
Y366736D01*
X350000Y356469D02*
Y373263D01*
X352000Y356469D02*
Y372736D01*
X364000Y356469D02*
Y360736D01*
X366000Y356469D02*
Y359283D01*
X360000Y356469D02*
Y364736D01*
X362000Y356469D02*
Y362736D01*
X326112Y378000D02*
X339632D01*
X336526Y374000D02*
X339632D01*
X337943Y370000D02*
X339632D01*
X349868Y368000D02*
X356736D01*
X337737Y372000D02*
X339632D01*
X337294Y368000D02*
X339632D01*
Y366395D02*
Y381500D01*
X328112Y376000D02*
X339632D01*
X329644Y374468D02*
X330011D01*
X328000Y366531D02*
X330011D01*
X335106Y366000D02*
X339236D01*
X328000Y365369D02*
Y366531D01*
X349717Y364000D02*
X360736D01*
X349868Y365000D02*
Y373307D01*
X343882Y357618D02*
X348882Y362618D01*
X348264Y362000D02*
X362736D01*
X348000Y356469D02*
Y361736D01*
X346264Y360000D02*
X364742D01*
X344264Y358000D02*
X381152D01*
X336000Y365369D02*
Y366539D01*
X338605Y365369D02*
X339632Y366395D01*
X326000Y365369D02*
Y367072D01*
X330000Y365369D02*
Y366531D01*
X344000Y356469D02*
Y357736D01*
X346000Y356469D02*
Y359736D01*
X306000Y476223D02*
Y496032D01*
X304000Y477366D02*
Y496032D01*
X308000Y474234D02*
Y496032D01*
X300000Y477622D02*
Y496032D01*
X302000Y477622D02*
Y496032D01*
X306234Y476000D02*
X325766D01*
X285500Y477622D02*
X302346D01*
X288000D02*
Y496032D01*
X286000Y477622D02*
Y496032D01*
X290000Y477622D02*
Y496032D01*
X284000Y477412D02*
Y496032D01*
X282000Y476355D02*
Y496032D01*
X296000Y477622D02*
Y496032D01*
X298000Y477622D02*
Y496032D01*
X292000Y477622D02*
Y496032D01*
X294000Y477622D02*
Y496032D01*
X324000Y474234D02*
Y496032D01*
X322000Y472234D02*
Y496032D01*
X324372Y459138D02*
X352765Y487532D01*
X320000Y470234D02*
Y496032D01*
X318235Y468469D02*
X345798Y496032D01*
X312234Y470000D02*
X319766D01*
X313765Y468469D02*
X318235D01*
X308234Y474000D02*
X323766D01*
X310234Y472000D02*
X321766D01*
X316000Y468469D02*
Y496032D01*
X314000Y468469D02*
Y496032D01*
X318000Y468469D02*
Y496032D01*
X312000Y470234D02*
Y496032D01*
X280000Y413294D02*
Y496032D01*
X310000Y472234D02*
Y496032D01*
X306218Y476015D02*
X313765Y468469D01*
X282000Y412968D02*
Y467952D01*
X115469Y494000D02*
X343766D01*
X115469Y492000D02*
X341766D01*
X115469Y490000D02*
X339766D01*
X115469Y496032D02*
X345798D01*
X115469Y496000D02*
X345766D01*
X177406Y484000D02*
X333766D01*
X177881Y482000D02*
X331766D01*
X173099Y488000D02*
X337766D01*
X176169Y486000D02*
X335766D01*
X177905Y480000D02*
X329766D01*
X196000Y432500D02*
Y496032D01*
X198000Y432500D02*
Y496032D01*
X177905Y478000D02*
X327766D01*
X177905Y476000D02*
X281613D01*
X177905Y474000D02*
X280353D01*
X177905Y472000D02*
X280034D01*
X177723Y470000D02*
X280473D01*
X176906Y468000D02*
X281943D01*
X270000Y413867D02*
Y496032D01*
X268000Y413867D02*
Y496032D01*
X214000Y413264D02*
Y496032D01*
X210000Y417264D02*
Y496032D01*
X212000Y415264D02*
Y496032D01*
X278000Y413943D02*
Y496032D01*
X276000Y413737D02*
Y496032D01*
X272000Y412968D02*
Y496032D01*
X274000Y412968D02*
Y496032D01*
X194000Y432500D02*
Y496032D01*
X192000Y432500D02*
Y496032D01*
X200000Y432500D02*
Y496032D01*
X188000Y432500D02*
Y496032D01*
X190000Y432500D02*
Y496032D01*
X206000Y421181D02*
Y496032D01*
X208000Y419264D02*
Y496032D01*
X202000Y432500D02*
Y496032D01*
X204000Y421769D02*
Y496032D01*
X316968Y446000D02*
X389632D01*
X316968Y448000D02*
X389632D01*
X316968Y444000D02*
X389632D01*
X316968Y452000D02*
X389632D01*
X316968Y450000D02*
X389632D01*
X316968Y436000D02*
X389632D01*
X316968Y434000D02*
X389632D01*
X316968Y442000D02*
X389632D01*
X316968Y438000D02*
X389632D01*
X322715Y458000D02*
X385236D01*
X285500Y466685D02*
X300081D01*
X306031Y460735D01*
X316968Y454000D02*
X389236D01*
X316968Y440000D02*
X389632D01*
X316968Y457531D02*
X320500D01*
X316968Y456000D02*
X387236D01*
X322000Y422968D02*
Y457741D01*
X320000Y422968D02*
Y457531D01*
X324000Y422968D02*
Y458798D01*
X316968Y432000D02*
X389632D01*
X316968Y430000D02*
X389632D01*
X316968Y424000D02*
X389632D01*
X316968Y422968D02*
X337500D01*
X316968Y428000D02*
X389632D01*
X316968Y426000D02*
X389632D01*
X306000Y417961D02*
Y460766D01*
X304000Y415112D02*
Y462766D01*
X302000Y413112D02*
Y464766D01*
X290000Y413367D02*
Y466685D01*
X292000Y413367D02*
Y466685D01*
X316968Y422968D02*
Y457531D01*
X318000Y422968D02*
Y457531D01*
X306031Y417984D02*
Y460735D01*
X169837Y456000D02*
X306031D01*
X169666Y458000D02*
X306031D01*
X169306Y454000D02*
X306031D01*
X168717Y460000D02*
X306031D01*
X167794Y452000D02*
X306031D01*
X143074Y448000D02*
X306031D01*
X143302Y446000D02*
X306031D01*
X142527Y450000D02*
X306031D01*
X140997Y438000D02*
X306031D01*
X166157Y462000D02*
X304766D01*
X175070Y466000D02*
X300766D01*
X143226Y444000D02*
X306031D01*
X115469Y464000D02*
X302766D01*
X142843Y442000D02*
X306031D01*
X176232Y434000D02*
X306031D01*
X176754Y432500D02*
X202500D01*
X142122Y440000D02*
X306031D01*
X174405Y436000D02*
X306031D01*
X202500Y426000D02*
X306031D01*
X202500Y428000D02*
X306031D01*
X202500Y424000D02*
X306031D01*
X202500Y432000D02*
X306031D01*
X202500Y430000D02*
X306031D01*
X209264Y418000D02*
X306031D01*
X211264Y416000D02*
X304452D01*
X202500Y422000D02*
X306031D01*
X207264Y420000D02*
X306031D01*
X284000Y412968D02*
Y466895D01*
X202500Y421769D02*
X204100D01*
X202500D02*
Y432500D01*
X271989Y412968D02*
X274511D01*
X280489D02*
X288828D01*
X213264Y414000D02*
X302888D01*
X174000Y487641D02*
Y496032D01*
X172000Y488254D02*
Y496032D01*
X176000Y486184D02*
Y496032D01*
X170000Y488254D02*
Y496032D01*
X166000Y486184D02*
Y496032D01*
X168000Y487641D02*
Y496032D01*
X150779Y486000D02*
X165831D01*
X152348Y484000D02*
X164594D01*
X152909Y482000D02*
X164119D01*
X152000Y484622D02*
Y496032D01*
X152937Y480000D02*
X164094D01*
X148000Y487273D02*
Y496032D01*
X150000Y486545D02*
Y496032D01*
X152937Y474000D02*
X164094D01*
X152937Y472000D02*
X164094D01*
X152937Y478000D02*
X164094D01*
X152937Y476000D02*
X164094D01*
X184000Y432500D02*
Y496032D01*
X182000Y432500D02*
Y496032D01*
X186000Y432500D02*
Y496032D01*
X178000Y432500D02*
Y496032D01*
X180000Y432500D02*
Y496032D01*
X177905Y471579D02*
Y481421D01*
X152723Y470000D02*
X164277D01*
X151737Y468000D02*
X165094D01*
X162000Y462437D02*
Y496032D01*
X160000Y462437D02*
Y496032D01*
X164000Y462436D02*
Y496032D01*
X158000Y462437D02*
Y496032D01*
X154000Y462436D02*
Y496032D01*
X164094Y471579D02*
Y481421D01*
X156000Y462437D02*
Y496032D01*
X152937Y471579D02*
Y481421D01*
X152000Y462061D02*
Y468377D01*
X146000Y487273D02*
Y496032D01*
X144000Y486545D02*
Y496032D01*
X142000Y484622D02*
Y496032D01*
X115469Y488000D02*
X168901D01*
X115469Y486000D02*
X143221D01*
X115469Y484000D02*
X141652D01*
X115469Y482000D02*
X141091D01*
X141063Y471579D02*
Y481421D01*
X115469Y480000D02*
X141063D01*
X115469Y478000D02*
X141063D01*
X115469Y472000D02*
X141063D01*
X115469Y470000D02*
X141277D01*
X115469Y476000D02*
X141063D01*
X115469Y474000D02*
X141063D01*
X138000Y456139D02*
Y496032D01*
X136000Y457382D02*
Y496032D01*
X140000Y454285D02*
Y496032D01*
X132000Y458660D02*
Y496032D01*
X134000Y458196D02*
Y496032D01*
X142000Y451261D02*
Y468377D01*
X115469Y468000D02*
X142263D01*
X122000Y456139D02*
Y496032D01*
X120000Y454285D02*
Y496032D01*
X118000Y451261D02*
Y496032D01*
X115469Y432500D02*
Y496032D01*
X116000Y432500D02*
Y496032D01*
X130000Y458811D02*
Y496032D01*
X128000Y458660D02*
Y496032D01*
X126000Y458196D02*
Y496032D01*
X124000Y457382D02*
Y496032D01*
X172000Y436835D02*
Y464746D01*
X170000Y436644D02*
Y464746D01*
X174000Y436238D02*
Y465359D01*
X149031Y466000D02*
X166930D01*
X168000Y460814D02*
Y465359D01*
Y435553D02*
Y452186D01*
X166000Y462061D02*
Y466816D01*
X154079Y462437D02*
X163921D01*
X150000Y460814D02*
Y466456D01*
X154079Y450563D02*
X163921D01*
X141616Y452000D02*
X150206D01*
X176000Y434399D02*
Y466816D01*
X166000Y432500D02*
Y450939D01*
X164000Y432500D02*
Y450563D01*
X160000Y433055D02*
Y450563D01*
X158000Y432950D02*
Y450563D01*
X162748Y432500D02*
X166246D01*
X162000Y432736D02*
Y450563D01*
X150000Y432500D02*
Y452186D01*
X148000Y432500D02*
Y465727D01*
X152000Y432500D02*
Y450939D01*
X144000Y432500D02*
Y466456D01*
X146000Y432500D02*
Y465727D01*
X154000Y432500D02*
Y450563D01*
X156000Y432500D02*
Y450563D01*
X142000Y432628D02*
Y439740D01*
X142362Y432500D02*
X156252D01*
X115469Y462000D02*
X151843D01*
X115469Y466000D02*
X144969D01*
X134575Y458000D02*
X148334D01*
X115469Y460000D02*
X149283D01*
X115469Y458000D02*
X125425D01*
X138181Y456000D02*
X148163D01*
X140244Y454000D02*
X148694D01*
X115469Y456000D02*
X121819D01*
X115469Y436000D02*
X120676D01*
X115469Y450000D02*
X117473D01*
X115469Y448000D02*
X116926D01*
X115469Y446000D02*
X116698D01*
X115469Y454000D02*
X119756D01*
X115469Y452000D02*
X118384D01*
X115469Y440000D02*
X117878D01*
X115469Y438000D02*
X119003D01*
X115469Y444000D02*
X116774D01*
X115469Y442000D02*
X117157D01*
X139324Y436000D02*
X168595D01*
X140000Y432902D02*
Y436715D01*
X138000Y432500D02*
Y434861D01*
X136703Y434000D02*
X166768D01*
X132861Y432500D02*
X138055D01*
X136000D02*
Y433618D01*
X120000Y432500D02*
Y436715D01*
X122000Y432500D02*
Y434861D01*
X115469Y434000D02*
X123297D01*
X118000Y432500D02*
Y439740D01*
X126000Y432500D02*
Y432804D01*
X134000Y432500D02*
Y432804D01*
X115469Y432500D02*
X127139D01*
X124000D02*
Y433618D01*
X313548Y412000D02*
X335266D01*
X313562Y412032D02*
X335235D01*
X312968Y408000D02*
X327053D01*
X312968Y410000D02*
X331468D01*
X312968Y406000D02*
X325452D01*
X312968Y404000D02*
X325031D01*
X293106D02*
X305031D01*
X312968Y402000D02*
X325452D01*
X300000Y412968D02*
Y466685D01*
X298000Y412968D02*
Y466685D01*
X301856Y412968D02*
X304211Y415323D01*
X294000Y412968D02*
Y466685D01*
X296000Y412968D02*
Y466685D01*
X293172Y412968D02*
X301856D01*
X294557Y405031D02*
X303500D01*
X322000Y382112D02*
Y412032D01*
X320000Y384112D02*
Y412032D01*
X324000Y380112D02*
Y412032D01*
X316000Y388112D02*
Y412032D01*
X318000Y386112D02*
Y412032D01*
X312968Y400000D02*
X327053D01*
X312968Y398000D02*
X350005D01*
X312968Y396000D02*
X348784D01*
X314000Y390112D02*
Y412032D01*
X312968Y391144D02*
Y411011D01*
X305031Y389500D02*
Y405339D01*
X302000Y365369D02*
Y405031D01*
X304000Y365369D02*
Y405063D01*
X298000Y365369D02*
Y405031D01*
X300000Y365369D02*
Y405031D01*
X294000Y365369D02*
Y404539D01*
X296000Y365369D02*
Y405031D01*
X288000Y412968D02*
Y466685D01*
X286000Y412968D02*
Y466685D01*
X280489Y405031D02*
X287442D01*
X234967Y402000D02*
X305031D01*
X234503Y404000D02*
X288894D01*
X234591Y400000D02*
X305031D01*
X266000Y412960D02*
Y496032D01*
X234737Y408000D02*
X264133D01*
X215264Y412000D02*
X265039D01*
X233526Y410000D02*
X264133D01*
X271989Y405031D02*
X274511D01*
X234943Y406000D02*
X265039D01*
X266000Y399443D02*
Y405039D01*
X286000Y368831D02*
Y405031D01*
X284000Y368868D02*
Y405031D01*
X288000Y367764D02*
Y404539D01*
X280000Y370048D02*
Y404706D01*
X282000Y368868D02*
Y405031D01*
X290000Y365764D02*
Y403633D01*
X292000Y365369D02*
Y403633D01*
X269026Y398000D02*
X305031D01*
X270237Y396000D02*
X305031D01*
X276000Y370048D02*
Y404263D01*
X274000Y368447D02*
Y405031D01*
X272000Y356469D02*
Y405031D01*
X264000Y399237D02*
Y496032D01*
X268000Y398794D02*
Y404133D01*
X270000Y396606D02*
Y404133D01*
X278000Y370468D02*
Y404057D01*
X316112Y388000D02*
X372063D01*
X314112Y390000D02*
X351376D01*
X312968Y391144D02*
X329644Y374468D01*
X312968Y394000D02*
X348571D01*
X312968Y392000D02*
X349213D01*
X322112Y382000D02*
X339669D01*
X324112Y380000D02*
X339632D01*
X318112Y386000D02*
X342968D01*
X320112Y384000D02*
X340736D01*
X306198Y386690D02*
X325190Y367698D01*
X280106Y370000D02*
X322888D01*
X287758Y368000D02*
X324888D01*
X281652Y368868D02*
X285500D01*
X320000Y365369D02*
Y372888D01*
X318000Y365369D02*
Y374888D01*
X322000Y365369D02*
Y370888D01*
X314000Y365369D02*
Y378888D01*
X316000Y365369D02*
Y376888D01*
X290395Y365369D02*
X338605D01*
X324000D02*
Y368888D01*
X289764Y366000D02*
X330894D01*
X285000Y356631D02*
X341500D01*
X310000Y365369D02*
Y382888D01*
X308000Y365369D02*
Y384888D01*
X312000Y365369D02*
Y380888D01*
X287882Y367882D02*
X290395Y365369D01*
X306000D02*
Y386902D01*
X284000Y356469D02*
Y356783D01*
X282000Y356469D02*
Y357169D01*
X268868Y386000D02*
X306888D01*
X268868Y388000D02*
X305326D01*
X268868Y384000D02*
X308888D01*
X268868Y382000D02*
X310888D01*
X268717Y380000D02*
X312888D01*
X267264Y378000D02*
X314888D01*
X265264Y376000D02*
X316888D01*
X263264Y374000D02*
X318888D01*
X261264Y372000D02*
X320888D01*
X269794Y392000D02*
X305031D01*
X270443Y394000D02*
X305031D01*
X268868Y381000D02*
Y390848D01*
X237204Y390000D02*
X262132D01*
X268868D02*
X305031D01*
X259264Y370000D02*
X275894D01*
X257382Y368118D02*
X267882Y378618D01*
X278000Y356469D02*
Y360531D01*
X276000Y356469D02*
Y360952D01*
X202500Y362000D02*
X274474D01*
X202500Y360000D02*
X278613D01*
X280000Y356469D02*
Y358167D01*
X202500Y358000D02*
X280214D01*
X202500Y356469D02*
X445532D01*
X268000D02*
Y378742D01*
X270000Y356469D02*
Y392394D01*
X264000Y356469D02*
Y374736D01*
X266000Y356469D02*
Y376736D01*
X257258Y368000D02*
X273706D01*
X274000Y356469D02*
Y362553D01*
X231606Y366000D02*
X273057D01*
X202500Y364000D02*
X273263D01*
X262000Y398026D02*
Y496032D01*
X236000Y395127D02*
Y496032D01*
X234000Y409447D02*
Y496032D01*
X234808Y396000D02*
X260763D01*
X233078Y398000D02*
X261974D01*
X232000Y411048D02*
Y496032D01*
X230000Y411469D02*
Y496032D01*
X228000Y411048D02*
Y496032D01*
X222000Y408268D02*
Y496032D01*
X224000Y408268D02*
Y496032D01*
X232000Y396543D02*
Y397352D01*
X234000Y396337D02*
Y398953D01*
X226000Y409447D02*
Y496032D01*
X230000Y395894D02*
Y396932D01*
X254000Y374264D02*
Y496032D01*
X252000Y373868D02*
Y496032D01*
X250000Y373868D02*
Y496032D01*
X246000Y373868D02*
Y496032D01*
X248000Y373868D02*
Y496032D01*
X260000Y380264D02*
Y496032D01*
X258000Y378264D02*
Y496032D01*
X236850Y394000D02*
X260557D01*
X256000Y376264D02*
Y496032D01*
X242000Y373868D02*
Y496032D01*
X240000Y373868D02*
Y496032D01*
X244000Y373868D02*
Y496032D01*
X224000Y393369D02*
Y400132D01*
X238000Y373868D02*
Y496032D01*
X228000Y393706D02*
Y397352D01*
X222000Y393369D02*
Y400132D01*
X226000Y393369D02*
Y398953D01*
X218000Y409264D02*
Y496032D01*
X216000Y411264D02*
Y496032D01*
X220000Y408268D02*
Y496032D01*
X206482Y420782D02*
X218995Y408268D01*
X202500Y413256D02*
X214638Y401118D01*
X217264Y410000D02*
X226473D01*
X218995Y408268D02*
X225357D01*
X202500Y404000D02*
X211756D01*
X202500Y402000D02*
X213756D01*
X204000Y401369D02*
Y411756D01*
X202500Y401369D02*
Y413256D01*
X206000Y401016D02*
Y409756D01*
X202500Y412000D02*
X203756D01*
X202500Y410000D02*
X205756D01*
X202500Y401369D02*
X204500D01*
X202500Y408000D02*
X207756D01*
X202500Y406000D02*
X209756D01*
X217020Y400132D02*
X225357D01*
X218000Y393369D02*
Y400132D01*
X220000Y393369D02*
Y400132D01*
X207264Y400000D02*
X225409D01*
X213264Y394000D02*
X228150D01*
X213895Y393369D02*
X227857D01*
X209264Y398000D02*
X226922D01*
X211264Y396000D02*
X230192D01*
X212000Y395264D02*
Y403756D01*
X214000Y393369D02*
Y401756D01*
X208000Y399264D02*
Y407756D01*
X210000Y397264D02*
Y405756D01*
X216000Y393369D02*
Y400290D01*
X206882Y400382D02*
X213895Y393369D01*
X262132Y382395D02*
Y390848D01*
X237452Y392000D02*
X261206D01*
X262000Y382264D02*
Y390973D01*
X237367Y388000D02*
X262132D01*
X237367Y386000D02*
X262132D01*
X236461Y384000D02*
X262132D01*
X253605Y373868D02*
X262132Y382395D01*
X236000Y373868D02*
Y383473D01*
X230000Y375443D02*
Y382706D01*
X228000Y375237D02*
Y384894D01*
X233152Y373868D02*
X253605D01*
X234000D02*
Y382263D01*
X232000Y374794D02*
Y382057D01*
X233027Y374000D02*
X253736D01*
X260000Y356469D02*
Y370736D01*
X258000Y356469D02*
Y368736D01*
X262000Y356469D02*
Y372736D01*
X233152Y367131D02*
X255000D01*
X256000Y356469D02*
Y367283D01*
X252000Y356469D02*
Y367131D01*
X254000Y356469D02*
Y367131D01*
X248000Y356469D02*
Y367131D01*
X250000Y356469D02*
Y367131D01*
X244000Y356469D02*
Y367131D01*
X242000Y356469D02*
Y367131D01*
X246000Y356469D02*
Y367131D01*
X238000Y356469D02*
Y367131D01*
X240000Y356469D02*
Y367131D01*
X234000Y356469D02*
Y367131D01*
X236000Y356469D02*
Y367131D01*
X230000Y356469D02*
Y365557D01*
X232000Y356469D02*
Y366206D01*
X211920Y385231D02*
X227857D01*
X226000Y374026D02*
Y385231D01*
X202500Y384000D02*
X228539D01*
X202500Y382000D02*
X261736D01*
X202500Y376000D02*
X255736D01*
X202500Y374000D02*
X225974D01*
X202500Y380000D02*
X259736D01*
X202500Y378000D02*
X257736D01*
X202525Y393232D02*
X209538Y386218D01*
X202500Y392000D02*
X203756D01*
X202500Y390000D02*
X205756D01*
X202500Y388000D02*
X207756D01*
X202500Y386000D02*
X209778D01*
X202500Y372000D02*
X224763D01*
X202500Y370000D02*
X224557D01*
X224000Y356469D02*
Y385231D01*
X222000Y356469D02*
Y385231D01*
X218000Y356469D02*
Y385231D01*
X220000Y356469D02*
Y385231D01*
X226000Y356469D02*
Y366973D01*
X228000Y356469D02*
Y365763D01*
X202500Y368000D02*
X225206D01*
X202500Y366000D02*
X227394D01*
X206000Y356469D02*
Y389756D01*
X208000Y356469D02*
Y387756D01*
X202500Y356469D02*
Y393232D01*
X204000Y356469D02*
Y391756D01*
X214000Y356469D02*
Y385231D01*
X216000Y356469D02*
Y385231D01*
X210000Y356469D02*
Y385832D01*
X212000Y356469D02*
Y385231D01*
X311500Y417000D02*
Y417500D01*
X328000Y370500D02*
X333000D01*
X441500Y398000D02*
Y423000D01*
X415000Y371500D02*
X441500Y398000D01*
X415000Y362500D02*
Y371500D01*
X433500Y397500D02*
Y401000D01*
X410000Y374000D02*
X433500Y397500D01*
X404500Y374000D02*
X410000D01*
X415000Y361000D02*
Y362500D01*
X410500Y356500D02*
X415000Y361000D01*
X356500Y356500D02*
X410500D01*
X354000Y359000D02*
X356500Y356500D01*
X147000Y468500D02*
Y476500D01*
Y468500D02*
X159000Y456500D01*
X269000Y409000D02*
X277500D01*
X303500D01*
X309000Y389500D02*
Y414000D01*
Y389500D02*
X328000Y370500D01*
X303500Y409000D02*
X311500Y417000D01*
X383500Y395000D02*
Y403000D01*
X376000Y387500D02*
X383500Y395000D01*
X376000Y378000D02*
Y387500D01*
Y378000D02*
X380000Y374000D01*
X404500D01*
X433500Y431000D02*
Y469500D01*
X430000Y473000D02*
X433500Y469500D01*
X426000Y473000D02*
X430000D01*
X433500Y431000D02*
X441500Y423000D01*
D17*
X184500Y418520D02*
D03*
D26*
X426000Y473000D02*
X429559D01*
X426000D02*
Y476559D01*
Y469441D02*
Y473000D01*
X422441D02*
X426000D01*
X433500Y431000D02*
X437453D01*
X433500D02*
Y434953D01*
X429547Y431000D02*
X433500D01*
X415000Y362500D02*
X418953D01*
X415000Y358547D02*
Y362500D01*
Y366453D01*
X147000Y476500D02*
X151937D01*
X147000D02*
Y486358D01*
X142063Y476500D02*
X147000D01*
Y466642D02*
Y476500D01*
X159000Y456500D02*
X168858D01*
X159000D02*
Y461437D01*
Y451563D02*
Y456500D01*
X149142D02*
X159000D01*
X194500Y383520D02*
X227480D01*
X233000Y378000D01*
X140209Y417000D02*
X146209Y411000D01*
X163500D01*
X180500Y428000D01*
X223000D01*
X235500Y415500D01*
X405000Y362500D02*
Y373500D01*
X404500Y374000D02*
X405000Y373500D01*
X419500Y473000D02*
X426000D01*
X415000Y468500D02*
X419500Y473000D01*
X415000Y451500D02*
Y468500D01*
D28*
X343000Y381500D02*
X344500Y383000D01*
X343000Y365000D02*
Y381500D01*
X340000Y362000D02*
X343000Y365000D01*
X331500Y382500D02*
X339000Y375000D01*
Y367000D02*
Y375000D01*
X336500Y364500D02*
X339000Y367000D01*
X344500Y383000D02*
X350000D01*
X346500Y365000D02*
Y379000D01*
X341500Y360000D02*
X346500Y365000D01*
X377500Y480000D02*
X399000Y458500D01*
Y380000D02*
Y458500D01*
X396500Y377500D02*
X399000Y380000D01*
X377000Y475000D02*
X397000Y455000D01*
Y381500D02*
Y455000D01*
X395000Y379500D02*
X397000Y381500D01*
X378500Y469500D02*
X393000Y455000D01*
Y383000D02*
Y455000D01*
X363000Y475000D02*
X377000D01*
X265500Y381000D02*
Y394500D01*
X255000Y370500D02*
X265500Y381000D01*
X229500Y370500D02*
X255000D01*
X353516Y394484D02*
Y399984D01*
X346500Y407000D02*
X353516Y399984D01*
X333000Y407000D02*
X346500D01*
X330000Y404000D02*
X333000Y407000D01*
X356500Y376500D02*
Y379000D01*
X387500Y381500D02*
Y382000D01*
Y381500D02*
X389500Y379500D01*
X395000D01*
X382000Y380000D02*
X382500Y380500D01*
X385500Y377500D02*
X396500D01*
X382500Y380500D02*
X385500Y377500D01*
X363000Y469500D02*
X378500D01*
X361500Y480000D02*
X377500D01*
X351500Y378000D02*
X367000Y362500D01*
X385000D01*
X356500Y376500D02*
X365500Y367500D01*
X390000D01*
X395000Y362500D01*
X362500Y378000D02*
X369500Y371000D01*
X374500D01*
X328000Y382500D02*
X331500D01*
X283000Y362000D02*
X285000Y360000D01*
X341500D01*
X278000Y365500D02*
X285500D01*
X289000Y362000D01*
X340000D01*
X307846Y368000D02*
X321500D01*
X325000Y364500D01*
X336500D01*
X204100Y418400D02*
X217600Y404900D01*
X228400D01*
X230000Y406500D01*
X184500Y418520D02*
X184620Y418400D01*
X204100D01*
X203520Y417000D02*
X217020Y403500D01*
X228400D02*
X230000Y401900D01*
X194500Y413520D02*
X197980Y417000D01*
X203520D01*
X217020Y403500D02*
X228400D01*
X204500Y398000D02*
X212500Y390000D01*
X230900D01*
X184500Y407580D02*
X194080Y398000D01*
X184500Y407580D02*
Y408520D01*
X194080Y398000D02*
X204500D01*
X230900Y390000D02*
X232500Y391600D01*
X203920Y396600D02*
X211920Y388600D01*
X230900D02*
X232500Y387000D01*
X194500Y393520D02*
Y394100D01*
X197000Y396600D01*
X203920D01*
X211920Y388600D02*
X230900D01*
D29*
X311500Y417500D02*
X337500D01*
X311500D02*
Y463000D01*
X302346Y472154D02*
X311500Y463000D01*
X320500D02*
X350500Y493000D01*
X311500Y463000D02*
X320500D01*
X285500Y472154D02*
X302346D01*
X337500Y417500D02*
X340500Y414500D01*
X375500D01*
X383500Y406500D01*
Y403000D02*
Y406500D01*
X350500Y493000D02*
X360500D01*
D30*
X426000Y453000D02*
D03*
Y463000D02*
D03*
Y473000D02*
D03*
Y483000D02*
D03*
D31*
X415000Y362500D02*
D03*
X404000Y386500D02*
D03*
D32*
X405000Y362500D02*
D03*
X395000D02*
D03*
X385000D02*
D03*
X140209Y375016D02*
D03*
Y426984D02*
D03*
X414000Y386500D02*
D03*
X433500Y431000D02*
D03*
Y421000D02*
D03*
Y411000D02*
D03*
D33*
X159000Y456500D02*
D03*
D34*
X147000Y476500D02*
D03*
X171000D02*
D03*
D35*
X140209Y417000D02*
D03*
Y385000D02*
D03*
D36*
X184500Y388520D02*
D03*
X194500Y393520D02*
D03*
X184500Y408520D02*
D03*
X194500Y413520D02*
D03*
Y403520D02*
D03*
X184500Y398520D02*
D03*
X194500Y383520D02*
D03*
D37*
X171500Y431512D02*
D03*
Y370488D02*
D03*
D38*
X433500Y401000D02*
D03*
D39*
X252000Y360000D02*
D03*
X213000D02*
D03*
X315500Y395500D02*
D03*
X406000Y429500D02*
D03*
X413000Y492000D02*
D03*
X327500Y493000D02*
D03*
X284000Y492000D02*
D03*
X217000Y491000D02*
D03*
X254000Y492500D02*
D03*
X127500Y476000D02*
D03*
X150000Y446500D02*
D03*
X203500Y450000D02*
D03*
X245500Y452500D02*
D03*
X281500Y457000D02*
D03*
X341000Y425500D02*
D03*
X330000Y460500D02*
D03*
X355000Y460000D02*
D03*
X377500Y461000D02*
D03*
X388000Y445000D02*
D03*
X386000Y419000D02*
D03*
X372500Y403500D02*
D03*
X359500Y387500D02*
D03*
D40*
X333000Y370500D02*
D03*
X278000Y365500D02*
D03*
X350000Y383000D02*
D03*
X307846Y368000D02*
D03*
X283161Y362000D02*
D03*
X346500Y379000D02*
D03*
X233000Y378000D02*
D03*
X235500Y415500D02*
D03*
X265500Y394500D02*
D03*
X229500Y370500D02*
D03*
X328000Y382500D02*
D03*
X353516Y394484D02*
D03*
X330000Y404000D02*
D03*
X351500Y378000D02*
D03*
X356500Y379000D02*
D03*
X362500Y378000D02*
D03*
X393000Y383000D02*
D03*
X387500Y382000D02*
D03*
X382000Y380000D02*
D03*
X363000Y475000D02*
D03*
X362500Y480500D02*
D03*
X363000Y469500D02*
D03*
X354000Y359000D02*
D03*
X285500Y472154D02*
D03*
X291000Y408500D02*
D03*
X309000Y414000D02*
D03*
X277500Y409000D02*
D03*
X269000D02*
D03*
X343500Y414500D02*
D03*
X371000Y415000D02*
D03*
X383500Y403000D02*
D03*
X374500Y371000D02*
D03*
X360500Y493000D02*
D03*
X415000Y451500D02*
D03*
X289913Y472154D02*
D03*
X230000Y406500D02*
D03*
Y401900D02*
D03*
X232500Y391600D02*
D03*
Y387000D02*
D03*
M02*
